<mxfile host="app.diagrams.net" modified="2023-08-06T15:29:26.233Z" agent="Mozilla/5.0 (Windows NT 10.0; Win64; x64) AppleWebKit/537.36 (KHTML, like Gecko) Chrome/115.0.0.0 Safari/537.36" version="21.6.6" etag="4eJDKMfckIPdaaNt5aOC" type="github">
  <diagram name="Page-1" id="7Zqnkhs4W4JbbAjlPd_K">
    <mxGraphModel>
      <root>
        <mxCell id="0" />
        <mxCell id="1" parent="0" />
        <mxCell id="2" value="Grandfather" style="whiteSpace=wrap;strokeWidth=2;" vertex="1" parent="1">
          <mxGeometry x="508" width="103" height="33" as="geometry" />
        </mxCell>
        <mxCell id="3" value="First Son" style="whiteSpace=wrap;strokeWidth=2;" vertex="1" parent="1">
          <mxGeometry x="109" y="83" width="77" height="33" as="geometry" />
        </mxCell>
        <mxCell id="4" value="Second Son" style="whiteSpace=wrap;strokeWidth=2;" vertex="1" parent="1">
          <mxGeometry x="386" y="83" width="95" height="33" as="geometry" />
        </mxCell>
        <mxCell id="5" value="Third Son" style="whiteSpace=wrap;strokeWidth=2;" vertex="1" parent="1">
          <mxGeometry x="700" y="83" width="83" height="33" as="geometry" />
        </mxCell>
        <mxCell id="6" value="Youngest Son" style="whiteSpace=wrap;strokeWidth=2;" vertex="1" parent="1">
          <mxGeometry x="1085" y="83" width="109" height="33" as="geometry" />
        </mxCell>
        <mxCell id="7" value="Child 1" style="whiteSpace=wrap;strokeWidth=2;" vertex="1" parent="1">
          <mxGeometry y="167" width="65" height="33" as="geometry" />
        </mxCell>
        <mxCell id="8" value="Child 2" style="whiteSpace=wrap;strokeWidth=2;" vertex="1" parent="1">
          <mxGeometry x="115" y="167" width="65" height="33" as="geometry" />
        </mxCell>
        <mxCell id="9" value="Child 3" style="whiteSpace=wrap;strokeWidth=2;" vertex="1" parent="1">
          <mxGeometry x="229" y="167" width="65" height="33" as="geometry" />
        </mxCell>
        <mxCell id="10" value="Child 1" style="whiteSpace=wrap;strokeWidth=2;" vertex="1" parent="1">
          <mxGeometry x="344" y="167" width="65" height="33" as="geometry" />
        </mxCell>
        <mxCell id="11" value="Child 2" style="whiteSpace=wrap;strokeWidth=2;" vertex="1" parent="1">
          <mxGeometry x="459" y="167" width="65" height="33" as="geometry" />
        </mxCell>
        <mxCell id="12" value="My Father" style="whiteSpace=wrap;strokeWidth=2;" vertex="1" parent="1">
          <mxGeometry x="574" y="167" width="88" height="33" as="geometry" />
        </mxCell>
        <mxCell id="13" value="Myself" style="whiteSpace=wrap;strokeWidth=2;" vertex="1" parent="1">
          <mxGeometry x="711" y="167" width="61" height="33" as="geometry" />
        </mxCell>
        <mxCell id="14" value="Sibling" style="whiteSpace=wrap;strokeWidth=2;" vertex="1" parent="1">
          <mxGeometry x="823" y="167" width="62" height="33" as="geometry" />
        </mxCell>
        <mxCell id="15" value="Child 1" style="whiteSpace=wrap;strokeWidth=2;" vertex="1" parent="1">
          <mxGeometry x="935" y="167" width="65" height="33" as="geometry" />
        </mxCell>
        <mxCell id="16" value="Child 2" style="whiteSpace=wrap;strokeWidth=2;" vertex="1" parent="1">
          <mxGeometry x="1050" y="167" width="65" height="33" as="geometry" />
        </mxCell>
        <mxCell id="17" value="Child 3" style="whiteSpace=wrap;strokeWidth=2;" vertex="1" parent="1">
          <mxGeometry x="1164" y="167" width="65" height="33" as="geometry" />
        </mxCell>
        <mxCell id="18" value="Child 4" style="whiteSpace=wrap;strokeWidth=2;" vertex="1" parent="1">
          <mxGeometry x="1279" y="167" width="65" height="33" as="geometry" />
        </mxCell>
        <mxCell id="19" value="" style="curved=1;startArrow=none;endArrow=block;exitX=-0.004418280518170699;exitY=0.6646141091036599;entryX=0.4946428274179434;entryY=0.012121258359966856;" edge="1" parent="1" source="2" target="3">
          <mxGeometry relative="1" as="geometry">
            <Array as="points">
              <mxPoint x="147" y="58" />
            </Array>
          </mxGeometry>
        </mxCell>
        <mxCell id="20" value="" style="curved=1;startArrow=none;endArrow=block;exitX=0.010263420583847063;exitY=1.0121212583599668;entryX=0.5042104620682566;entryY=0.012121258359966856;" edge="1" parent="1" source="2" target="4">
          <mxGeometry relative="1" as="geometry">
            <Array as="points">
              <mxPoint x="434" y="58" />
            </Array>
          </mxGeometry>
        </mxCell>
        <mxCell id="21" value="" style="curved=1;startArrow=none;endArrow=block;exitX=0.9997989228628215;exitY=0.8637120620227089;entryX=0.505863994000906;entryY=0.012121258359966856;" edge="1" parent="1" source="2" target="5">
          <mxGeometry relative="1" as="geometry">
            <Array as="points">
              <mxPoint x="742" y="58" />
            </Array>
          </mxGeometry>
        </mxCell>
        <mxCell id="22" value="" style="curved=1;startArrow=none;endArrow=block;exitX=0.9997989228628215;exitY=0.6187177203916236;entryX=0.4986810946683271;entryY=0.012121258359966856;" edge="1" parent="1" source="2" target="6">
          <mxGeometry relative="1" as="geometry">
            <Array as="points">
              <mxPoint x="1139" y="58" />
            </Array>
          </mxGeometry>
        </mxCell>
        <mxCell id="23" value="" style="curved=1;startArrow=none;endArrow=block;exitX=-0.004383136699726055;exitY=0.9414133352872697;entryX=0.4978846036470853;entryY=-0.006060513583096591;" edge="1" parent="1" source="3" target="7">
          <mxGeometry relative="1" as="geometry">
            <Array as="points">
              <mxPoint x="32" y="142" />
            </Array>
          </mxGeometry>
        </mxCell>
        <mxCell id="24" value="" style="curved=1;startArrow=none;endArrow=block;exitX=0.4946428274179434;exitY=1.0242425167199336;entryX=0.493653810941256;entryY=-0.006060513583096591;" edge="1" parent="1" source="3" target="8">
          <mxGeometry relative="1" as="geometry">
            <Array as="points" />
          </mxGeometry>
        </mxCell>
        <mxCell id="25" value="" style="curved=1;startArrow=none;endArrow=block;exitX=0.9936687915356128;exitY=0.9414133352872697;entryX=0.5048076336200421;entryY=-0.006060513583096591;" edge="1" parent="1" source="3" target="9">
          <mxGeometry relative="1" as="geometry">
            <Array as="points">
              <mxPoint x="262" y="142" />
            </Array>
          </mxGeometry>
        </mxCell>
        <mxCell id="26" value="" style="curved=1;startArrow=none;endArrow=block;exitX=0.262394542972866;exitY=1.0242425167199336;entryX=0.5005768409142127;entryY=-0.006060513583096591;" edge="1" parent="1" source="4" target="10">
          <mxGeometry relative="1" as="geometry">
            <Array as="points">
              <mxPoint x="377" y="142" />
            </Array>
          </mxGeometry>
        </mxCell>
        <mxCell id="27" value="" style="curved=1;startArrow=none;endArrow=block;exitX=0.7460263811636472;exitY=1.0242425167199336;entryX=0.4963460482083834;entryY=-0.006060513583096591;" edge="1" parent="1" source="4" target="11">
          <mxGeometry relative="1" as="geometry">
            <Array as="points">
              <mxPoint x="491" y="142" />
            </Array>
          </mxGeometry>
        </mxCell>
        <mxCell id="28" value="" style="curved=1;startArrow=none;endArrow=block;exitX=0.0036049578563276544;exitY=0.9412227525405993;entryX=0.4939185922796076;entryY=-0.006060513583096591;" edge="1" parent="1" source="5" target="12">
          <mxGeometry relative="1" as="geometry">
            <Array as="points">
              <mxPoint x="617" y="142" />
            </Array>
          </mxGeometry>
        </mxCell>
        <mxCell id="29" value="" style="curved=1;startArrow=none;endArrow=block;exitX=0.505863994000906;exitY=1.0242425167199336;entryX=0.5079788770831999;entryY=-0.006060513583096591;" edge="1" parent="1" source="5" target="13">
          <mxGeometry relative="1" as="geometry">
            <Array as="points" />
          </mxGeometry>
        </mxCell>
        <mxCell id="30" value="" style="curved=1;startArrow=none;endArrow=block;exitX=1.0081230301454842;exitY=0.9893578604080286;entryX=0.4965724637431483;entryY=-0.006060513583096591;" edge="1" parent="1" source="5" target="14">
          <mxGeometry relative="1" as="geometry">
            <Array as="points">
              <mxPoint x="854" y="142" />
            </Array>
          </mxGeometry>
        </mxCell>
        <mxCell id="31" value="" style="curved=1;startArrow=none;endArrow=block;exitX=0.0005732895037449828;exitY=0.9168602340206643;entryX=0.49644217857947714;entryY=-0.006060513583096591;" edge="1" parent="1" source="6" target="15">
          <mxGeometry relative="1" as="geometry">
            <Array as="points">
              <mxPoint x="967" y="142" />
            </Array>
          </mxGeometry>
        </mxCell>
        <mxCell id="32" value="" style="curved=1;startArrow=none;endArrow=block;exitX=0.2879241009613364;exitY=1.0242425167199336;entryX=0.4922113858736478;entryY=-0.006060513583096591;" edge="1" parent="1" source="6" target="16">
          <mxGeometry relative="1" as="geometry">
            <Array as="points">
              <mxPoint x="1082" y="142" />
            </Array>
          </mxGeometry>
        </mxCell>
        <mxCell id="33" value="" style="curved=1;startArrow=none;endArrow=block;exitX=0.7094380883753179;exitY=1.0242425167199336;entryX=0.5033652085524339;entryY=-0.006060513583096591;" edge="1" parent="1" source="6" target="17">
          <mxGeometry relative="1" as="geometry">
            <Array as="points">
              <mxPoint x="1197" y="142" />
            </Array>
          </mxGeometry>
        </mxCell>
        <mxCell id="34" value="" style="curved=1;startArrow=none;endArrow=block;exitX=0.9967888998329093;exitY=0.9163938113961009;entryX=0.5022354125976562;entryY=-0.006060513583096591;" edge="1" parent="1" source="6" target="18">
          <mxGeometry relative="1" as="geometry">
            <Array as="points">
              <mxPoint x="1312" y="142" />
            </Array>
          </mxGeometry>
        </mxCell>
      </root>
    </mxGraphModel>
  </diagram>
</mxfile>
